<svg xmlns="http://www.w3.org/2000/svg" viewBox="0 0 500 500"><g id="freepik--Fireball--inject-274"><g style="opacity:0.6000000000000001"><path d="M250.67,430.87c4.5-6.14,28.81-14.33,34.19-21.84s18.38-28.51,18.38-28.51-23.65,16.62-26.45,17.82-11.85-2.46-11.85-3.78S322.19,369.34,331,358.7c8.6-10.35,12.68-76.49,12.9-80.34-.54,3.29-9.23,54.62-20.42,65.89-5,5.05-49.56,16.29-60.6,23.9s-21.56,27-23.82,28.74-7.14-7.15-5.69-15,31.08-26.14,39.13-30.75,36.24-26.34,38.15-33.06S327.21,258,330,252.8s21.05-14.56,23.72-19.2,2-20.36,3.75-27.85S359.9,166,359.92,165c-.37.89-14.71,36-35.55,47-12.92,6.82-13.84,22.7-16.26,26.29s-37.09,31.77-42.55,32.3-45.24-4.93-55.49-5.85-27.56,11-27.56,11c5.8-6.84,15.21-19,20-22.92s61.35,8.07,67.9,2.67,41.52-48.89,41.52-48.89-33.36,26.12-43.36,32.16-85.44-13.67-94.94-3.18-40.84,39.65-46,44.42S91.69,304.7,86,313s-4.81,59.27-1.2,74.19c4.3,17.81,25.49,48.84,25.49,48.84s35.58,28.58,74.8,29.08c7.32.1,43.32-4.3,49.92-11.87S246.17,437,250.67,430.87Zm-89.85-139s-5.36,17.46-16.14,24.45-16.64,9-21,13.57-14.39,17-14.39,17c.07-1.15,9.76-22.11,16.35-29.51C134.22,307.72,160.82,291.83,160.82,291.83Zm-71.4,69.84c-1-5.9.61-29.37,5.31-36.39s19.56-17.94,19.56-17.94-15.43,20.75-17.51,26.18,1.64,20.29.89,27.3-1.73,20.64-1.73,20.64S90.45,367.57,89.42,361.67Zm106,77.39c-12.74,9-30.56,4.92-30.56,4.92s12.79-8.5,18.86-10.64,16.67-7.29,22.74-13.86c5.85-6.32,13.08-23.17,13.6-24.41C219.41,397,207.81,430.35,195.42,439.06Z" style="fill:#92E3A9"></path><path d="M325.31,157s.33,22.19-7.58,30.7-32.46,18-38.41,25.39a79.46,79.46,0,0,0-9.7,16.06s-.76-23.09,8.44-32.07,30.72-16.21,34.52-21.28S325.31,157,325.31,157Z" style="fill:#92E3A9"></path><path d="M331,283.14s3.08-15.22,6.13-20.43,11.41-10.25,11.41-10.25,1.34,7.12-4.77,15.09S331,283.14,331,283.14Z" style="fill:#92E3A9"></path><path d="M339,170.66s-4.9-24.1,1.74-37,21.48-27.87,26.46-31.43,17.06-11.86,23-18.14S405,51.35,403.47,43.66a33.14,33.14,0,0,0-6.68-13.57s16.3,3.48,20.4,24.94-6.5,97.25-18,111.89-29,26.45-29,26.45,9-27.75,9.83-35.26-17.82-5.07-23.32-1.9S339,170.66,339,170.66Z" style="fill:#92E3A9"></path></g><g style="opacity:0.6000000000000001"><path d="M112.05,432.59s-15.88-45.81-1.48-74c9-17.67,48-33.34,53.29-36.68s20.65-21.26,28.94-26.28,77.84-4.57,84.33-7.24S329.08,233,329.08,233s-24.82,56.95-32.6,69.65-77.42,33.24-81,37-8.71,20.28-8.71,20.28,15.86-.4,23-7.23,9-13.24,14.4-17.55,29.53-7.28,29.53-7.28-18,7.8-22.08,15.33-16.38,25.27-24,29.91c-10.92,6.68-40.71,18.52-45.5,25a44.71,44.71,0,0,0-6.59,12.8s11.11-5.73,17.6-10.5,14.88-11.33,14.88-11.33-31.85,42-47.46,47.17S112.05,432.59,112.05,432.59Z" style="fill:#92E3A9"></path><path d="M358.81,149.64c-.05-1-.24-15.64,2-23s15.61-14.2,22-18.43,22.12-19.36,24.32-28.89,3.47-16.9,3.47-16.9-3.14,56.63-9.44,73-17.24,24.85-17.24,24.85,2.53-16.75-3.58-17.93C372.14,140.74,358.81,149.64,358.81,149.64Z" style="fill:#92E3A9"></path><path d="M320.77,168.25s-1.82,14.9-7.48,20.33-27.54,14.3-27.54,14.3,20.92-15.2,25-18.23S320.77,168.25,320.77,168.25Z" style="fill:#92E3A9"></path><path d="M156.68,450s24.63,2.14,30,1.63,25-12.71,27.89-16.11,12.69-21.82,16.57-25.7,26.45-8.93,26.45-8.93S241.67,411.1,239,414.78s-9.57,33.39-17.1,39.5-30.73,7.58-36.61,7.22S156.68,450,156.68,450Z" style="fill:#92E3A9"></path><path d="M135.21,292.19s26.23-36.39,33.46-42.31,47.22-10.48,47.22-10.48-37.18,13-41.19,15.67-12.18,14.72-12.18,14.72,9.82-4.73,12.94-6.94,8.23-6.19,8.23-6.19S173.77,272,165.54,277.9,135.21,292.19,135.21,292.19Z" style="fill:#92E3A9"></path></g><circle cx="175.78" cy="370.83" r="89.33" style="fill:#92E3A9;opacity:0.6000000000000001"></circle><circle cx="175.78" cy="370.83" r="82.69" style="fill:#92E3A9;opacity:0.6000000000000001"></circle><circle cx="175.78" cy="370.83" r="78.63" style="fill:#92E3A9"></circle><circle cx="175.78" cy="370.83" r="78.63" style="fill:#fff;opacity:0.4"></circle><circle cx="169.32" cy="377.29" r="65.79" style="fill:#fff;opacity:0.4"></circle><g style="opacity:0.8"><path d="M221.43,275.18s-.7-14.16,6.28-21.26,24.2-13.19,27.29-16.69,11.08-20.87,11.08-20.87-5.82,28.15-12.43,33.64-15.38,14.48-15.38,14.48,6.31-.71,9-2.92,6.72-6.35,6.72-6.35-.54,15.5-7.89,21.72-29.14,13-29.14,13A79.87,79.87,0,0,0,221.9,283C223.47,280.29,221.2,280.9,221.43,275.18Z" style="fill:#92E3A9"></path><path d="M252.39,394.15c10.17-19.57,13.4-75.13,13.51-77.1-.29,1.25-5,21.48-8.57,31.05-3.65,9.85-32.41,41.42-43.31,43.31s-36.67-.38-41.74-7.68,10.44-27.45,16.44-33.45,47.28-6.22,58.74-22.75c11.3-16.29,22.29-67.89,22.59-69.33-.54.93-23.68,41-36.88,42.49s-92.42-4.46-105.07,4.79S95.62,343,94,375.66s21.13,55.5,21.13,55.5c.79.79,2.75,2.89,2.75,2.89-6.53-15.17-16.78-39.95-14.18-50.42,3.34-13.49,15.71-31.49,20.9-34.68,8.48-5.22,24.36-5.42,33.48-11.44,3.79-2.5,9.9-17.21,9.9-17.21s4,19.26-4,27.38c-7.33,7.42-27.72,24-31.34,34.07s5,45.16,9.63,58c1.94,5.37,16.17,14.63,30.58,15h0c14,1.86,27.6.72,37.5-6.17C225.22,438.27,242.05,414.08,252.39,394.15Zm-40.71,37.34c-6.09,5.33-16.19,15.43-25.83,16.06s-31.74-9.3-32.44-9.62c.58-.18,19-5.8,25.74-6.6s16.26.65,23.29-3S226,410.79,226,410.79,217.77,426.14,211.68,431.49Z" style="fill:#92E3A9"></path><path d="M153.52,294.63s20-11.11,28.81-12.66,22.4,3,22.4,3S198,293.28,183.24,294,153.52,294.63,153.52,294.63Z" style="fill:#92E3A9"></path></g><path d="M258.43,205.35a2.82,2.82,0,1,1,0-4A2.82,2.82,0,0,1,258.43,205.35Z" style="fill:#92E3A9"></path><path d="M362.8,128.66a2.83,2.83,0,1,1,0-4A2.84,2.84,0,0,1,362.8,128.66Z" style="fill:#92E3A9"></path><path d="M323.66,295a2.82,2.82,0,1,1,3.17-2.44A2.83,2.83,0,0,1,323.66,295Z" style="fill:#92E3A9"></path><path d="M266.66,447.59a2.82,2.82,0,1,1,0-4A2.82,2.82,0,0,1,266.66,447.59Z" style="fill:#92E3A9"></path><path d="M108.19,293.12a2.82,2.82,0,1,1,0-4A2.84,2.84,0,0,1,108.19,293.12Z" style="fill:#92E3A9"></path><path d="M248.06,221.13a3.83,3.83,0,1,1,0-5.41A3.81,3.81,0,0,1,248.06,221.13Z" style="fill:#92E3A9"></path><path d="M388.62,256.92a3.83,3.83,0,1,1,4.29-3.3A3.82,3.82,0,0,1,388.62,256.92Z" style="fill:#92E3A9"></path><path d="M302.71,359.9a3.83,3.83,0,1,1,0-5.42A3.84,3.84,0,0,1,302.71,359.9Z" style="fill:#92E3A9"></path><path d="M256.23,221.56a1.65,1.65,0,1,1,0-2.34A1.65,1.65,0,0,1,256.23,221.56Z" style="fill:#92E3A9"></path><path d="M226.67,265.58a1.65,1.65,0,1,1,0-2.34A1.65,1.65,0,0,1,226.67,265.58Z" style="fill:#92E3A9"></path><path d="M377.1,73.57a1.65,1.65,0,1,1,0-2.34A1.65,1.65,0,0,1,377.1,73.57Z" style="fill:#92E3A9"></path><path d="M110.47,384.3a1.66,1.66,0,0,1-2.35-2.35,1.66,1.66,0,0,1,2.35,2.35Z" style="fill:#92E3A9"></path><path d="M109.86,273.29a1.66,1.66,0,1,1,0-2.34A1.66,1.66,0,0,1,109.86,273.29Z" style="fill:#92E3A9"></path><path d="M323.12,366.72a1.66,1.66,0,0,1-2.35,0,1.66,1.66,0,0,1,2.35-2.35A1.66,1.66,0,0,1,323.12,366.72Z" style="fill:#92E3A9"></path><path d="M366.46,213.6a1.66,1.66,0,1,1,0-2.34A1.66,1.66,0,0,1,366.46,213.6Z" style="fill:#92E3A9"></path></g></svg>